# xmcd CD database file
#
# Track frame offsets:
#	150
#	11892
#	23761
#	39075
#	50823
#	66224
#	81109
#	98563
#	111428
#	127444
#	140258
#	155290
#	167844
#
# Disc length: 2406 seconds
#
# Revision: 0
# Processed by: cddbd v1.5.2PL0 Copyright (c) Steve Scherf et al.
# Submitted via: CDex 1.70beta2
#
DISCID=ad09640d
DTITLE=Joe Blanda - The Moon in the Man
DYEAR=1998
DGENRE=Country
TTITLE0=Take Me to Heaven
TTITLE1=Hank, Slow Down
TTITLE2=Angelique
TTITLE3=So Wrong (It Must Be Real)
TTITLE4=The Moon in the Man
TTITLE5=Making It up As We Go
TTITLE6=Fountain of Love
TTITLE7=Love Changes Everything
TTITLE8=Don't Fall in Love
TTITLE9=Big Enough World
TTITLE10=Red Car Mama
TTITLE11=Faith is an Angel
TTITLE12=Bonus Track
EXTD=YEAR: 1998
EXTT0=
EXTT1=
EXTT2=
EXTT3=
EXTT4=
EXTT5=
EXTT6=
EXTT7=
EXTT8=
EXTT9=
EXTT10=
EXTT11=
EXTT12=
PLAYORDER=
